<svg version="1.1" xmlns="http://www.w3.org/2000/svg" viewBox="0 0 1276.9516003472636 953.9032918467992" width="3830.854801041791" height="2861.7098755403977">
  <!-- svg-source:excalidraw -->
  
  <defs>
    <style class="style-fonts">
      @font-face {
        font-family: "Virgil";
        src: url("https://excalidraw.com/Virgil.woff2");
      }
      @font-face {
        font-family: "Cascadia";
        src: url("https://excalidraw.com/Cascadia.woff2");
      }
      @font-face {
        font-family: "Assistant";
        src: url("https://excalidraw.com/Assistant-Regular.woff2");
      }
    </style>
    
  </defs>
  <rect x="0" y="0" width="1276.9516003472636" height="953.9032918467992" fill="#ffffff"></rect><g stroke-linecap="round" transform="translate(575.783498085465 171.6718618299774) rotate(0 43.802291378824975 314.7377283931414)"><path d="M-0.12 0.89 L86.93 1.11 L89.03 631.08 L1.81 631.05" stroke="none" stroke-width="0" fill="#543008"></path><path d="M0 0 C27.8 -0.64, 53.64 0.21, 87.6 0 M0 0 C27.66 -0.03, 57.43 -0.35, 87.6 0 M87.6 0 C88.11 156.09, 88.69 310.59, 87.6 629.48 M87.6 0 C86.86 157.58, 86.33 315.39, 87.6 629.48 M87.6 629.48 C65.64 627.66, 44.76 628.35, 0 629.48 M87.6 629.48 C61.74 628.74, 36.66 629.86, 0 629.48 M0 629.48 C-1.83 438.82, -1.8 246.87, 0 0 M0 629.48 C-1.72 454.56, -1.71 278.9, 0 0" stroke="#000000" stroke-width="2" fill="none"></path></g><g stroke-linecap="round"><g transform="translate(595.3081336143259 176.0686345989934) rotate(0 -0.19348801052046838 311.36010504116007)"><path d="M0 0 C0.62 7.41, 4.72 32.19, 3.69 44.48 C2.66 56.77, -5.29 63.37, -6.16 73.76 C-7.03 84.14, -2.01 96.75, -1.54 106.81 C-1.06 116.86, -3.42 126, -3.31 134.09 C-3.19 142.17, -1.26 140.72, -0.85 155.31 C-0.44 169.91, -1.49 201.34, -0.87 221.64 C-0.25 241.95, 2.39 261.07, 2.86 277.15 C3.34 293.23, 3.33 305.61, 1.98 318.13 C0.62 330.64, -5.45 340.01, -5.26 352.23 C-5.06 364.44, 2.14 381.17, 3.14 391.41 C4.15 401.65, 1.32 404.4, 0.78 413.67 C0.24 422.93, -0.93 434.76, -0.11 446.99 C0.71 459.23, 5.01 476.58, 5.69 487.06 C6.38 497.55, 4.98 501.5, 4.01 509.91 C3.04 518.32, 0.8 527.92, -0.11 537.52 C-1.02 547.12, -1.72 557.82, -1.45 567.51 C-1.17 577.21, 1 586.49, 1.55 595.69 C2.1 604.89, 1.82 618.22, 1.87 622.72 M0 0 C0.62 7.41, 4.72 32.19, 3.69 44.48 C2.66 56.77, -5.29 63.37, -6.16 73.76 C-7.03 84.14, -2.01 96.75, -1.54 106.81 C-1.06 116.86, -3.42 126, -3.31 134.09 C-3.19 142.17, -1.26 140.72, -0.85 155.31 C-0.44 169.91, -1.49 201.34, -0.87 221.64 C-0.25 241.95, 2.39 261.07, 2.86 277.15 C3.34 293.23, 3.33 305.61, 1.98 318.13 C0.62 330.64, -5.45 340.01, -5.26 352.23 C-5.06 364.44, 2.14 381.17, 3.14 391.41 C4.15 401.65, 1.32 404.4, 0.78 413.67 C0.24 422.93, -0.93 434.76, -0.11 446.99 C0.71 459.23, 5.01 476.58, 5.69 487.06 C6.38 497.55, 4.98 501.5, 4.01 509.91 C3.04 518.32, 0.8 527.92, -0.11 537.52 C-1.02 547.12, -1.72 557.82, -1.45 567.51 C-1.17 577.21, 1 586.49, 1.55 595.69 C2.1 604.89, 1.82 618.22, 1.87 622.72" stroke="#75430b" stroke-width="2" fill="none"></path></g></g><mask></mask><g stroke-linecap="round"><g transform="translate(619.2358477228654 176.45410491765006) rotate(180 -0.348753654628581 312.2675223190529)"><path d="M0 0 C-0.71 8.44, -5.17 37.33, -4.23 50.66 C-3.3 63.98, 4.75 69.54, 5.62 79.93 C6.49 90.32, 1.47 102.93, 0.99 112.98 C0.52 123.04, 2.88 132.18, 2.77 140.27 C2.65 148.35, 0.71 146.9, 0.31 161.49 C-0.1 176.08, 0.95 207.51, 0.33 227.82 C-0.29 248.12, -2.93 267.24, -3.4 283.32 C-3.88 299.4, -3.87 311.79, -2.52 324.3 C-1.17 336.82, 4.91 346.19, 4.72 358.4 C4.52 370.62, -2.68 387.34, -3.68 397.59 C-4.69 407.83, -1.86 410.58, -1.32 419.84 C-0.78 429.11, 0.39 440.94, -0.43 453.17 C-1.25 465.4, -5.55 482.76, -6.24 493.24 C-6.92 503.73, -5.52 507.68, -4.55 516.09 C-3.59 524.5, -1.35 534.09, -0.44 543.69 C0.47 553.29, 1.18 563.99, 0.91 573.69 C0.63 583.38, -1.51 593.4, -2.09 601.87 C-2.68 610.34, -2.52 620.76, -2.61 624.54 M0 0 C-0.71 8.44, -5.17 37.33, -4.23 50.66 C-3.3 63.98, 4.75 69.54, 5.62 79.93 C6.49 90.32, 1.47 102.93, 0.99 112.98 C0.52 123.04, 2.88 132.18, 2.77 140.27 C2.65 148.35, 0.71 146.9, 0.31 161.49 C-0.1 176.08, 0.95 207.51, 0.33 227.82 C-0.29 248.12, -2.93 267.24, -3.4 283.32 C-3.88 299.4, -3.87 311.79, -2.52 324.3 C-1.17 336.82, 4.91 346.19, 4.72 358.4 C4.52 370.62, -2.68 387.34, -3.68 397.59 C-4.69 407.83, -1.86 410.58, -1.32 419.84 C-0.78 429.11, 0.39 440.94, -0.43 453.17 C-1.25 465.4, -5.55 482.76, -6.24 493.24 C-6.92 503.73, -5.52 507.68, -4.55 516.09 C-3.59 524.5, -1.35 534.09, -0.44 543.69 C0.47 553.29, 1.18 563.99, 0.91 573.69 C0.63 583.38, -1.51 593.4, -2.09 601.87 C-2.68 610.34, -2.52 620.76, -2.61 624.54" stroke="#75430b" stroke-width="2" fill="none"></path></g></g><mask></mask><g stroke-linecap="round"><g transform="translate(645.1170493868012 177.04978378403985) rotate(0 -3.192668211233922 310.0865038776876)"><path d="M0 0 C-0.56 5.47, -2.97 22.25, -3.34 32.81 C-3.72 43.37, -3.24 53.15, -2.24 63.38 C-1.24 73.6, 3.02 84.1, 2.67 94.14 C2.32 104.18, -3.06 113.9, -4.34 123.6 C-5.62 133.3, -5.78 143.36, -5.01 152.34 C-4.24 161.32, 0.31 166.76, 0.3 177.46 C0.28 188.15, -4.55 202.82, -5.1 216.52 C-5.65 230.23, -4.31 246.41, -2.99 259.69 C-1.67 272.98, 2.36 283.7, 2.82 296.24 C3.29 308.78, 0.79 323.51, -0.2 334.95 C-1.19 346.39, -2.81 354.25, -3.12 364.9 C-3.43 375.55, -1.06 387.73, -2.08 398.85 C-3.1 409.98, -9.71 418.66, -9.24 431.67 C-8.78 444.67, 0.18 462.69, 0.7 476.87 C1.23 491.05, -5.9 504.52, -6.08 516.75 C-6.26 528.98, -1.67 536.77, -0.38 550.24 C0.91 563.71, 1.74 585.9, 1.66 597.55 C1.58 609.21, -0.44 616.4, -0.86 620.17 M0 0 C-0.56 5.47, -2.97 22.25, -3.34 32.81 C-3.72 43.37, -3.24 53.15, -2.24 63.38 C-1.24 73.6, 3.02 84.1, 2.67 94.14 C2.32 104.18, -3.06 113.9, -4.34 123.6 C-5.62 133.3, -5.78 143.36, -5.01 152.34 C-4.24 161.32, 0.31 166.76, 0.3 177.46 C0.28 188.15, -4.55 202.82, -5.1 216.52 C-5.65 230.23, -4.31 246.41, -2.99 259.69 C-1.67 272.98, 2.36 283.7, 2.82 296.24 C3.29 308.78, 0.79 323.51, -0.2 334.95 C-1.19 346.39, -2.81 354.25, -3.12 364.9 C-3.43 375.55, -1.06 387.73, -2.08 398.85 C-3.1 409.98, -9.71 418.66, -9.24 431.67 C-8.78 444.67, 0.18 462.69, 0.7 476.87 C1.23 491.05, -5.9 504.52, -6.08 516.75 C-6.26 528.98, -1.67 536.77, -0.38 550.24 C0.91 563.71, 1.74 585.9, 1.66 597.55 C1.58 609.21, -0.44 616.4, -0.86 620.17" stroke="#75430b" stroke-width="2" fill="none"></path></g></g><mask></mask><g stroke-linecap="round" transform="translate(396.1600545783076 348.8422517720178) rotate(0 223.42573488598237 37.5581564135548)"><path d="M0.99 0.04 L446.19 0 L444.87 73.54 L1.89 73.47" stroke="none" stroke-width="0" fill="#543008"></path><path d="M0 0 C103.6 2.19, 206.35 0.72, 446.85 0 M0 0 C142.41 0.23, 283.84 -0.4, 446.85 0 M446.85 0 C446.15 18.03, 446.95 38.47, 446.85 75.12 M446.85 0 C445.86 16.84, 446.2 33.45, 446.85 75.12 M446.85 75.12 C342.63 73.59, 239.78 73.95, 0 75.12 M446.85 75.12 C278.27 75.59, 108.91 75.39, 0 75.12 M0 75.12 C2 47.24, -0.04 20.36, 0 0 M0 75.12 C0.97 50.03, 1.16 24.11, 0 0" stroke="#000000" stroke-width="2" fill="none"></path></g><g stroke-linecap="round"><g transform="translate(398.013194942836 364.6278942701042) rotate(0 219.76010821027467 0.9023956472818782)"><path d="M0 0 C18.28 0.58, 81.51 2.91, 109.66 3.47 C137.81 4.03, 152.63 3.69, 168.9 3.37 C185.17 3.05, 192.6 1.63, 207.3 1.55 C222.01 1.47, 240.06 3.27, 257.14 2.89 C274.22 2.51, 292.98 -0.88, 309.77 -0.71 C326.56 -0.54, 342.55 4.14, 357.9 3.91 C373.25 3.69, 388.28 -1.6, 401.88 -2.07 C415.49 -2.54, 433.25 0.59, 439.52 1.12 M0 0 C18.28 0.58, 81.51 2.91, 109.66 3.47 C137.81 4.03, 152.63 3.69, 168.9 3.37 C185.17 3.05, 192.6 1.63, 207.3 1.55 C222.01 1.47, 240.06 3.27, 257.14 2.89 C274.22 2.51, 292.98 -0.88, 309.77 -0.71 C326.56 -0.54, 342.55 4.14, 357.9 3.91 C373.25 3.69, 388.28 -1.6, 401.88 -2.07 C415.49 -2.54, 433.25 0.59, 439.52 1.12" stroke="#75430b" stroke-width="2" fill="none"></path></g></g><mask></mask><g stroke-linecap="round"><g transform="translate(837.5334113633853 384.24021357799234) rotate(0 -219.76010821027467 0.9023956472818782)"><path d="M0 0 C-18.28 0.58, -81.51 2.91, -109.66 3.47 C-137.81 4.03, -155.66 3.97, -168.9 3.37 C-182.14 2.78, -174.39 -0.03, -189.09 -0.11 C-203.8 -0.19, -237.03 2.99, -257.14 2.89 C-277.25 2.79, -292.98 -0.88, -309.77 -0.71 C-326.56 -0.54, -342.55 4.14, -357.9 3.91 C-373.25 3.69, -388.28 -1.6, -401.88 -2.07 C-415.49 -2.54, -433.25 0.59, -439.52 1.12 M0 0 C-18.28 0.58, -81.51 2.91, -109.66 3.47 C-137.81 4.03, -155.66 3.97, -168.9 3.37 C-182.14 2.78, -174.39 -0.03, -189.09 -0.11 C-203.8 -0.19, -237.03 2.99, -257.14 2.89 C-277.25 2.79, -292.98 -0.88, -309.77 -0.71 C-326.56 -0.54, -342.55 4.14, -357.9 3.91 C-373.25 3.69, -388.28 -1.6, -401.88 -2.07 C-415.49 -2.54, -433.25 0.59, -439.52 1.12" stroke="#75430b" stroke-width="2" fill="none"></path></g></g><mask></mask><g stroke-linecap="round"><g transform="translate(837.5334113633853 405.50285117940643) rotate(180 -219.76010821027467 0.9023956472818782)"><path d="M0 0 C-18.28 0.58, -81.51 2.91, -109.66 3.47 C-137.81 4.03, -152.63 3.69, -168.9 3.37 C-185.17 3.05, -192.6 1.63, -207.3 1.55 C-222.01 1.47, -240.06 3.27, -257.14 2.89 C-274.22 2.51, -292.98 -0.88, -309.77 -0.71 C-326.56 -0.54, -342.55 4.14, -357.9 3.91 C-373.25 3.69, -388.28 -1.6, -401.88 -2.07 C-415.49 -2.54, -433.25 0.59, -439.52 1.12 M0 0 C-18.28 0.58, -81.51 2.91, -109.66 3.47 C-137.81 4.03, -152.63 3.69, -168.9 3.37 C-185.17 3.05, -192.6 1.63, -207.3 1.55 C-222.01 1.47, -240.06 3.27, -257.14 2.89 C-274.22 2.51, -292.98 -0.88, -309.77 -0.71 C-326.56 -0.54, -342.55 4.14, -357.9 3.91 C-373.25 3.69, -388.28 -1.6, -401.88 -2.07 C-415.49 -2.54, -433.25 0.59, -439.52 1.12" stroke="#75430b" stroke-width="2" fill="none"></path></g></g><mask></mask><g stroke-linecap="round" transform="translate(783.1516419782038 370.4976681945043) rotate(0 15.902739991068756 15.902739991068529)"><path d="M14.17 0.24 C17.23 -0.45, 21.4 0.8, 24.18 2.54 C26.96 4.28, 29.73 7.48, 30.84 10.68 C31.94 13.89, 32.17 18.57, 30.83 21.75 C29.5 24.93, 25.82 28.08, 22.82 29.78 C19.82 31.47, 16.02 32.65, 12.83 31.92 C9.64 31.2, 5.8 28.13, 3.68 25.42 C1.56 22.71, 0.09 19.05, 0.12 15.67 C0.15 12.29, 1.57 7.78, 3.85 5.14 C6.13 2.5, 11.94 0.62, 13.79 -0.15 C15.64 -0.92, 14.84 0.19, 14.97 0.51 M18.7 0.06 C21.69 0.45, 25.52 3.62, 27.64 6.32 C29.77 9.01, 31.34 12.94, 31.45 16.21 C31.57 19.48, 30.6 23.51, 28.33 25.95 C26.06 28.4, 21.24 30.22, 17.83 30.87 C14.42 31.52, 10.8 31.58, 7.86 29.88 C4.92 28.19, 1.43 23.91, 0.2 20.69 C-1.03 17.48, -0.95 13.6, 0.5 10.59 C1.96 7.58, 5.84 4.39, 8.92 2.62 C12.01 0.85, 17.41 0.35, 19 -0.02 C20.59 -0.38, 18.6 0.19, 18.46 0.42" stroke="none" stroke-width="0" fill="#868e96"></path><path d="M15.21 0.23 C18.46 -0.11, 22.92 0.95, 25.64 2.97 C28.37 5, 30.92 9, 31.57 12.38 C32.22 15.77, 31.18 20.31, 29.53 23.29 C27.88 26.27, 24.78 29.03, 21.68 30.28 C18.59 31.52, 14.18 31.84, 10.96 30.78 C7.73 29.73, 4.17 26.85, 2.33 23.94 C0.49 21.03, -0.55 16.7, -0.08 13.35 C0.39 10.01, 2.3 6.1, 5.16 3.88 C8.02 1.66, 14.89 0.66, 17.07 0.04 C19.25 -0.59, 18.33 -0.19, 18.26 0.13 M17.2 -0.33 C20.42 -0.24, 24.14 2.52, 26.52 4.88 C28.9 7.23, 31.03 10.47, 31.48 13.8 C31.92 17.14, 31.06 21.93, 29.2 24.88 C27.34 27.84, 23.48 30.48, 20.31 31.52 C17.15 32.56, 13.22 32.45, 10.24 31.15 C7.26 29.85, 4 26.86, 2.42 23.73 C0.84 20.6, 0.17 15.78, 0.77 12.36 C1.38 8.94, 3.54 5.37, 6.07 3.21 C8.6 1.06, 14.08 0.01, 15.97 -0.57 C17.86 -1.15, 17.27 -0.58, 17.41 -0.28" stroke="#000000" stroke-width="2" fill="none"></path></g><g stroke-linecap="round" transform="translate(425.8051298475457 370.4976681945043) rotate(0 15.902739991068756 15.902739991068529)"><path d="M18.75 0.37 C21.87 0.72, 25.86 2.93, 28.07 5.54 C30.28 8.15, 32.13 12.59, 32.02 16.03 C31.91 19.47, 29.64 23.48, 27.41 26.16 C25.19 28.84, 21.9 31.58, 18.67 32.1 C15.44 32.63, 10.99 31.09, 8.04 29.31 C5.08 27.54, 2.16 24.65, 0.95 21.45 C-0.26 18.25, -0.36 13.39, 0.78 10.11 C1.92 6.82, 4.59 3.32, 7.78 1.73 C10.97 0.15, 17.82 0.72, 19.93 0.61 C22.04 0.49, 20.48 0.73, 20.44 1.03 M18.31 0.68 C21.52 1.14, 25.6 3.38, 27.93 5.9 C30.25 8.41, 32.35 12.5, 32.26 15.79 C32.17 19.07, 29.66 22.91, 27.38 25.61 C25.09 28.31, 21.95 31.39, 18.56 31.99 C15.17 32.58, 10.09 30.93, 7.04 29.18 C4 27.43, 1.17 24.55, 0.29 21.49 C-0.59 18.43, 0.43 14.14, 1.75 10.83 C3.08 7.53, 5.44 3.45, 8.23 1.66 C11.02 -0.12, 16.81 0.36, 18.5 0.11 C20.19 -0.15, 18.23 -0.08, 18.38 0.14" stroke="none" stroke-width="0" fill="#868e96"></path><path d="M14.35 -0.37 C17.61 -0.95, 22.32 0.57, 25.07 2.56 C27.82 4.56, 30 8.32, 30.86 11.59 C31.72 14.85, 31.58 19.09, 30.22 22.17 C28.86 25.25, 25.78 28.6, 22.71 30.06 C19.64 31.53, 15.14 31.82, 11.8 30.94 C8.46 30.07, 4.65 27.56, 2.67 24.8 C0.69 22.05, -0.49 17.76, -0.1 14.42 C0.3 11.07, 2.45 7.17, 5.02 4.72 C7.58 2.27, 13.54 0.39, 15.28 -0.28 C17.01 -0.96, 15.46 0.38, 15.42 0.69 M14.83 0.64 C17.93 0.3, 22.49 1.04, 25.24 3.04 C28 5.04, 30.58 9.22, 31.35 12.64 C32.11 16.05, 31.27 20.43, 29.83 23.51 C28.38 26.6, 25.65 29.77, 22.68 31.13 C19.7 32.5, 15.24 32.8, 11.96 31.71 C8.67 30.62, 4.97 27.55, 2.95 24.6 C0.94 21.65, -0.36 17.47, -0.13 13.99 C0.09 10.51, 1.65 6.13, 4.29 3.7 C6.94 1.27, 13.93 0.03, 15.75 -0.59 C17.58 -1.22, 15.42 -0.39, 15.25 -0.05" stroke="#000000" stroke-width="2" fill="none"></path></g><g stroke-linecap="round" transform="translate(603.6830494732203 744.8626085175001) rotate(0 15.902739991068756 15.902739991068529)"><path d="M16.44 -0.38 C19.76 -0.47, 24.45 1.68, 26.92 4.02 C29.38 6.36, 30.77 10.18, 31.22 13.68 C31.67 17.17, 31.32 22.12, 29.61 24.98 C27.91 27.85, 24.28 29.89, 20.99 30.89 C17.7 31.89, 13.12 32.28, 9.86 30.99 C6.61 29.69, 3.13 26.28, 1.47 23.14 C-0.18 20, -0.91 15.45, -0.07 12.16 C0.77 8.87, 3.5 5.39, 6.51 3.4 C9.51 1.4, 15.84 0.59, 17.97 0.2 C20.11 -0.19, 19.31 0.85, 19.32 1.07 M14.26 0.04 C17.66 -0.56, 22.81 0.67, 25.56 2.51 C28.31 4.36, 29.96 7.7, 30.77 11.13 C31.59 14.56, 31.95 19.93, 30.47 23.08 C28.98 26.23, 25.11 28.58, 21.89 30.01 C18.66 31.44, 14.19 32.4, 11.13 31.67 C8.07 30.93, 5.35 28.53, 3.51 25.6 C1.67 22.67, -0.04 17.64, 0.09 14.11 C0.21 10.57, 1.93 6.82, 4.26 4.4 C6.6 1.98, 12.23 0.33, 14.09 -0.41 C15.94 -1.16, 15.39 -0.51, 15.38 -0.06" stroke="none" stroke-width="0" fill="#868e96"></path><path d="M17.8 -0.17 C20.99 0.04, 24.74 2.37, 27.05 4.82 C29.36 7.27, 31.38 11.15, 31.65 14.53 C31.93 17.92, 30.73 22.39, 28.72 25.14 C26.7 27.89, 22.92 30.24, 19.56 31.03 C16.2 31.82, 11.63 31.35, 8.56 29.86 C5.5 28.37, 2.42 25.16, 1.17 22.08 C-0.08 19.01, 0 14.7, 1.06 11.41 C2.12 8.12, 4.65 4.14, 7.51 2.33 C10.37 0.51, 16.37 0.83, 18.22 0.52 C20.07 0.2, 18.69 0.2, 18.62 0.45 M13.84 -0.04 C17.06 -0.66, 21.75 0.98, 24.59 2.95 C27.43 4.91, 29.8 8.44, 30.88 11.75 C31.96 15.06, 32.24 19.64, 31.04 22.8 C29.85 25.95, 26.8 29.27, 23.73 30.7 C20.65 32.13, 16.08 32.28, 12.61 31.39 C9.14 30.51, 5.13 28.24, 2.9 25.41 C0.68 22.57, -1.07 17.9, -0.72 14.4 C-0.36 10.89, 2.55 6.83, 5.04 4.38 C7.53 1.93, 12.79 0.4, 14.23 -0.28 C15.67 -0.97, 13.76 -0.18, 13.69 0.26" stroke="#000000" stroke-width="2" fill="none"></path></g><g stroke-linecap="round" transform="translate(603.6830494732203 199.49100163497383) rotate(0 15.902739991068756 15.902739991068529)"><path d="M16.68 -0.19 C19.88 -0.25, 23.53 1.48, 26.08 3.87 C28.63 6.26, 31.37 10.79, 31.98 14.17 C32.59 17.55, 31.6 21.25, 29.76 24.13 C27.92 27.01, 24.28 30.36, 20.93 31.44 C17.57 32.52, 12.91 31.98, 9.65 30.6 C6.4 29.22, 2.92 26.11, 1.41 23.14 C-0.11 20.16, -0.23 16.03, 0.58 12.75 C1.39 9.47, 3.46 5.5, 6.25 3.46 C9.04 1.41, 15.41 1.03, 17.33 0.49 C19.25 -0.05, 17.88 0.08, 17.77 0.2 M18.4 -0.28 C21.61 -0.19, 24.83 1.75, 27.09 4.38 C29.35 7.02, 31.84 12.07, 31.98 15.54 C32.11 19.01, 30.09 22.49, 27.89 25.21 C25.7 27.93, 21.91 30.94, 18.81 31.85 C15.71 32.76, 12.21 32.37, 9.28 30.68 C6.36 28.99, 2.75 24.99, 1.24 21.71 C-0.26 18.42, -0.66 14.24, 0.26 10.97 C1.19 7.69, 3.73 3.92, 6.8 2.04 C9.87 0.17, 16.95 -0.14, 18.69 -0.3 C20.42 -0.46, 17.23 0.67, 17.2 1.08" stroke="none" stroke-width="0" fill="#868e96"></path><path d="M12.06 0.25 C15.14 -0.68, 20.02 -0.16, 23.11 1.39 C26.2 2.95, 29.3 6.42, 30.62 9.58 C31.94 12.74, 32.09 17.09, 31.02 20.33 C29.95 23.57, 27.1 27.17, 24.22 29.03 C21.33 30.89, 16.96 31.9, 13.69 31.51 C10.42 31.11, 6.81 29.21, 4.59 26.68 C2.38 24.14, 0.61 19.65, 0.41 16.3 C0.2 12.95, 1.24 9.28, 3.36 6.59 C5.49 3.9, 11.46 1.14, 13.17 0.17 C14.88 -0.8, 13.63 0.54, 13.62 0.79 M19.1 0.67 C22.3 1.23, 25.94 3.76, 28.14 6.48 C30.35 9.2, 32.28 13.56, 32.33 17 C32.38 20.43, 30.74 24.64, 28.44 27.09 C26.14 29.53, 22.07 31.27, 18.55 31.66 C15.02 32.05, 10.36 31.32, 7.28 29.42 C4.2 27.53, 0.96 23.62, 0.05 20.29 C-0.85 16.95, 0.42 12.52, 1.84 9.39 C3.26 6.25, 5.75 3.03, 8.57 1.5 C11.39 -0.04, 17.07 0.2, 18.76 0.17 C20.44 0.14, 18.57 0.93, 18.68 1.32" stroke="#000000" stroke-width="2" fill="none"></path></g><g stroke-linecap="round" transform="translate(365.1773470500448 121.74757940299787) rotate(0 256.6154322634402 256.6154322634402)"><path d="M289.77 1.36 C309.72 -0.08, 331.12 9.99, 350.11 17.54 C369.09 25.09, 387.08 34.97, 403.67 46.66 C420.27 58.36, 436.18 72.2, 449.65 87.72 C463.13 103.23, 475.08 121.47, 484.53 139.76 C493.98 158.05, 501.45 177.47, 506.35 197.45 C511.25 217.43, 514.15 239.05, 513.93 259.64 C513.72 280.22, 510.12 301.15, 505.04 320.94 C499.95 340.74, 493.11 360.39, 483.45 378.41 C473.8 396.43, 460.84 414.04, 447.1 429.08 C433.37 444.11, 417.99 457.31, 401.04 468.61 C384.1 479.91, 364.86 489.57, 345.44 496.87 C326.02 504.18, 304.68 510.23, 284.5 512.45 C264.33 514.66, 244.46 512.98, 224.39 510.16 C204.33 507.35, 183.28 502.87, 164.12 495.55 C144.96 488.22, 126.17 478.1, 109.43 466.22 C92.69 454.33, 77.28 439.7, 63.67 424.24 C50.05 408.78, 37.18 391.54, 27.73 373.45 C18.27 355.36, 11.72 335.59, 6.96 315.69 C2.2 295.8, -0.94 274.5, -0.83 254.09 C-0.72 233.68, 2.3 212.84, 7.62 193.22 C12.95 173.59, 21.54 154.27, 31.12 136.32 C40.7 118.37, 51.66 100.74, 65.13 85.52 C78.59 70.3, 94.8 56.71, 111.92 45 C129.04 33.29, 148.58 22.37, 167.84 15.27 C187.11 8.18, 205.02 4.21, 227.51 2.43 C250 0.65, 288.24 3.13, 302.78 4.6 C317.32 6.07, 315.56 6.94, 314.77 11.25" stroke="#1e1e1e" stroke-width="4.5" fill="none" stroke-dasharray="1.5 10"></path></g><g stroke-linecap="round"><g transform="translate(646.8864864581246 272.1145568438171) rotate(0 164.7651551232916 -78.79460516304323)"><path d="M0.05 -0.02 C55.12 -26.14, 274.57 -130.95, 329.48 -157.57" stroke="#e03131" stroke-width="4.5" fill="none" stroke-dasharray="1.5 10"></path></g></g><mask></mask><g transform="translate(973.7517191467541 68.46410241035233) rotate(0 84.61796569824219 22.5)"><text x="0" y="31.536" font-family="Virgil, Segoe UI Emoji" font-size="36px" fill="#1e1e1e" text-anchor="start" style="white-space: pre;" direction="ltr" dominant-baseline="alphabetic">Free from</text></g><g transform="translate(987.9327408537365 108.74430984340438) rotate(0 50.13397216796875 17.5)"><text x="0" y="24.528" font-family="Virgil, Segoe UI Emoji" font-size="28px" fill="#1e1e1e" text-anchor="start" style="white-space: pre;" direction="ltr" dominant-baseline="alphabetic">poverty</text></g><g stroke-linecap="round"><g transform="translate(409.1459805705581 360.8414825125665) rotate(0 -89.06950523423575 -103.35384069382235)"><path d="M0.76 1.12 C-29.24 -33.68, -148.88 -173.17, -178.9 -207.82" stroke="#e03131" stroke-width="4.5" fill="none" stroke-dasharray="1.5 10"></path></g></g><mask></mask><g transform="translate(126.41502184386354 75.12017348711402) rotate(0 84.61796569824219 22.5)"><text x="0" y="31.536" font-family="Virgil, Segoe UI Emoji" font-size="36px" fill="#1e1e1e" text-anchor="start" style="white-space: pre;" direction="ltr" dominant-baseline="alphabetic">Free from</text></g><g transform="translate(109.4167204508276 117.29637834095934) rotate(0 105.81195831298828 17.5)"><text x="0" y="24.528" font-family="Virgil, Segoe UI Emoji" font-size="28px" fill="#1e1e1e" text-anchor="start" style="white-space: pre;" direction="ltr" dominant-baseline="alphabetic">low self-esteem</text></g><g stroke-linecap="round"><g transform="translate(831.6857939494448 390.29417364216215) rotate(0 81.71795513676898 -43.31722012091734)"><path d="M0.86 0.29 C27.9 -14.36, 135.66 -72.29, 162.58 -86.92" stroke="#e03131" stroke-width="4.5" fill="none" stroke-dasharray="1.5 10"></path></g></g><mask></mask><g transform="translate(993.4863007870508 248.54215987805378) rotate(0 84.61796569824219 22.5)"><text x="0" y="31.536" font-family="Virgil, Segoe UI Emoji" font-size="36px" fill="#1e1e1e" text-anchor="start" style="white-space: pre;" direction="ltr" dominant-baseline="alphabetic">Free from</text></g><g transform="translate(1007.6673224940332 290.0557786636243) rotate(0 57.62397766113281 17.5)"><text x="0" y="24.528" font-family="Virgil, Segoe UI Emoji" font-size="28px" fill="#1e1e1e" text-anchor="start" style="white-space: pre;" direction="ltr" dominant-baseline="alphabetic">betrayal</text></g><g stroke-linecap="round"><g transform="translate(641.740445661595 669.045139311344) rotate(0 145.01635261343245 101.98424265285098)"><path d="M-0.05 0.21 C48.45 34.2, 241.93 169.89, 290.09 203.76" stroke="#e03131" stroke-width="4.5" fill="none" stroke-dasharray="1.5 10"></path></g></g><mask></mask><g transform="translate(934.2825558661616 830.7123182667874) rotate(0 133.72195434570312 22.5)"><text x="0" y="31.536" font-family="Virgil, Segoe UI Emoji" font-size="36px" fill="#1e1e1e" text-anchor="start" style="white-space: pre;" direction="ltr" dominant-baseline="alphabetic">Free to walk in</text></g><g transform="translate(948.463577573144 872.225937052358) rotate(0 135.60394287109375 17.5)"><text x="0" y="24.528" font-family="Virgil, Segoe UI Emoji" font-size="28px" fill="#1e1e1e" text-anchor="start" style="white-space: pre;" direction="ltr" dominant-baseline="alphabetic">the purpose of God</text></g><g stroke-linecap="round"><g transform="translate(631.8731548414453 590.1068127501599) rotate(0 149.80956017017024 -19.165688292152026)"><path d="M-1.11 0.27 C49.18 -6.29, 250.48 -32.08, 300.73 -38.6" stroke="#e03131" stroke-width="4.5" fill="none" stroke-dasharray="1.5 10"></path></g></g><mask></mask><g transform="translate(939.2162012762365 497.6912530867917) rotate(0 84.61796569824219 22.5)"><text x="0" y="31.536" font-family="Virgil, Segoe UI Emoji" font-size="36px" fill="#1e1e1e" text-anchor="start" style="white-space: pre;" direction="ltr" dominant-baseline="alphabetic">Free from</text></g><g transform="translate(953.3972229832189 539.2048718723622) rotate(0 53.913970947265625 17.5)"><text x="0" y="24.528" font-family="Virgil, Segoe UI Emoji" font-size="28px" fill="#1e1e1e" text-anchor="start" style="white-space: pre;" direction="ltr" dominant-baseline="alphabetic">sickness</text></g><g stroke-linecap="round"><g transform="translate(620.7724526687816 396.4612304047546) rotate(0 -185.61462650419526 63.88251597019109)"><path d="M0.1 0.28 C-61.78 21.58, -309.31 105.94, -371.33 127.48" stroke="#e03131" stroke-width="4.5" fill="none" stroke-dasharray="1.5 10"></path></g></g><mask></mask><g transform="translate(58.57739745534582 492.01321063836804) rotate(0 89.13597869873047 22.5)"><text x="0" y="31.536" font-family="Virgil, Segoe UI Emoji" font-size="36px" fill="#1e1e1e" text-anchor="start" style="white-space: pre;" direction="ltr" dominant-baseline="alphabetic">The owner</text></g><g transform="translate(41.57909606230987 534.1894154922134) rotate(0 105.46195220947266 17.5)"><text x="0" y="24.528" font-family="Virgil, Segoe UI Emoji" font-size="28px" fill="#1e1e1e" text-anchor="start" style="white-space: pre;" direction="ltr" dominant-baseline="alphabetic">of a new heart</text></g><g stroke-linecap="round"><g transform="translate(613.3719845536698 622.1755079156408) rotate(0 -134.2715772392321 38.08156019538558)"><path d="M0.43 -0.86 C-44.24 11.82, -223.69 64.05, -268.97 77.03" stroke="#e03131" stroke-width="4.5" fill="none" stroke-dasharray="1.5 10"></path></g></g><mask></mask><g transform="translate(48.69320475787663 671.6022537919002) rotate(0 139.69793701171875 22.5)"><text x="0" y="31.536" font-family="Virgil, Segoe UI Emoji" font-size="36px" fill="#1e1e1e" text-anchor="start" style="white-space: pre;" direction="ltr" dominant-baseline="alphabetic">Free to release</text></g><g transform="translate(62.87422646485902 713.1158725774708) rotate(0 121.67394256591797 17.5)"><text x="0" y="24.528" font-family="Virgil, Segoe UI Emoji" font-size="28px" fill="#1e1e1e" text-anchor="start" style="white-space: pre;" direction="ltr" dominant-baseline="alphabetic">the power of God</text></g><g stroke-linecap="round" transform="translate(10 10) rotate(0 628.4758001736318 466.9516459233996)"><path d="M32 0 C489.05 3.52, 946.84 2.9, 1224.95 0 M1224.95 0 C1247.47 1.15, 1255.49 9.23, 1256.95 32 M1256.95 32 C1254.04 309, 1254.52 584.91, 1256.95 901.9 M1256.95 901.9 C1256.93 925.19, 1247.6 933.07, 1224.95 933.9 M1224.95 933.9 C808.69 936.49, 391.4 936.07, 32 933.9 M32 933.9 C11.79 933.68, -1.25 922.51, 0 901.9 M0 901.9 C2.79 640.15, 2.62 377.16, 0 32 M0 32 C-1.82 11.21, 10.91 -1.91, 32 0" stroke="#1e1e1e" stroke-width="4.5" fill="none" stroke-dasharray="1.5 10"></path></g></svg>